<?xml version="1.0" encoding="UTF-8"?>
<svg version="1.1" xmlns="http://www.w3.org/2000/svg" width="254" height="198">
<path d="M0 0 C11.05943438 4.6007247 18.98738285 12.91669005 23.875 23.8125 C27.49707839 34.07505543 27.42336398 46.01369353 23 56 C17.94766155 66.25662693 11.35845173 75.16242878 4.39697266 84.18261719 C-2.69459846 93.40835213 -9.03953082 103.01218679 -15 113 C-15.99 112.505 -15.99 112.505 -17 112 C-17 107.71 -17 103.42 -17 99 C-26.72972483 96.83315487 -36.08813057 96.86313738 -45.98242188 97.11645508 C-48.027334 97.16481449 -50.07191113 97.19458642 -52.1171875 97.22265625 C-53.92098877 97.26531616 -53.92098877 97.26531616 -55.76123047 97.30883789 C-59.47320777 96.95487654 -61.16301789 96.41754078 -64 94 C-66.7652231 89.06059097 -67.44752212 84.65695938 -67.3984375 79.08984375 C-67.40130768 78.3593129 -67.40417786 77.62878204 -67.40713501 76.87611389 C-67.40916344 75.34245013 -67.40371965 73.80875977 -67.39111328 72.27514648 C-67.37501723 69.94000021 -67.39101413 67.60657818 -67.41015625 65.27148438 C-67.40817405 63.77343372 -67.40433086 62.27538413 -67.3984375 60.77734375 C-67.40451019 60.08656235 -67.41058289 59.39578094 -67.4168396 58.68406677 C-67.35056461 54.07492031 -66.45638334 50.89883223 -64 47 C-60.16587022 44.44391348 -56.98255562 44.68547087 -52.53515625 44.65625 C-51.70543808 44.6416272 -50.87571991 44.62700439 -50.02085876 44.61193848 C-47.36812133 44.56542958 -44.71545863 44.53123672 -42.0625 44.5 C-38.5739421 44.45884268 -35.08590992 44.40515555 -31.59765625 44.34375 C-30.79650894 44.3384729 -29.99536163 44.3331958 -29.16993713 44.32775879 C-23.73982734 44.31270071 -23.73982734 44.31270071 -19 42 C-17.8247967 38.47439011 -17.83958538 35.60250154 -17.7890625 31.8828125 C-17.76099303 30.45701979 -17.73232855 29.03123869 -17.703125 27.60546875 C-17.66189979 25.36507505 -17.6249988 23.12489798 -17.59863281 20.88427734 C-17.57093483 18.71667121 -17.52506871 16.55003978 -17.4765625 14.3828125 C-17.45674316 13.08746582 -17.43692383 11.79211914 -17.41650391 10.45751953 C-16.87021329 5.92260295 -15.3741268 3.31462852 -12.10546875 0.1875 C-8.17235271 -2.03080664 -4.23748241 -1.02048035 0 0 Z " fill="#016898" transform="translate(118,31)"/>
<path d="M0 0 C4.32326033 -0.0992011 8.64591024 -0.17162265 12.9699707 -0.21972656 C14.43948921 -0.23978825 15.90892841 -0.26704478 17.37817383 -0.30175781 C19.49580487 -0.35052141 21.61237687 -0.37302161 23.73046875 -0.390625 C25.00301514 -0.41157227 26.27556152 -0.43251953 27.58666992 -0.45410156 C31.57731488 0.07680464 33.17915793 1.18928487 36 4 C37.6433869 7.2867738 37.20599853 10.93628294 37.23828125 14.55078125 C37.246353 15.40173874 37.25442474 16.25269623 37.26274109 17.12944031 C37.27658294 18.93254559 37.28730465 20.73567709 37.29516602 22.53881836 C37.31236789 25.29136067 37.35625049 28.04269838 37.40039062 30.79492188 C37.41051863 32.54686617 37.4190344 34.29882067 37.42578125 36.05078125 C37.44328934 36.87177811 37.46079742 37.69277496 37.47883606 38.53865051 C37.46364043 42.55874452 37.3055325 44.51849898 35.09838867 47.99682617 C31.67544875 51.26444945 29.46292108 51.15776424 24.8125 51.28125 C22.92724609 51.33732422 22.92724609 51.33732422 21.00390625 51.39453125 C19.66928244 51.43012557 18.33464681 51.46527906 17 51.5 C2.4017396 50.88842878 2.4017396 50.88842878 -11 55 C-12.57718145 58.76821554 -12.13510214 63.03312137 -12.140625 67.0546875 C-12.15895073 68.65496218 -12.17852083 70.255223 -12.19921875 71.85546875 C-12.22817654 74.36596171 -12.25000011 76.87555961 -12.25048828 79.38623047 C-12.25383347 81.81818104 -12.28843394 84.24809275 -12.328125 86.6796875 C-12.3210553 87.42362762 -12.3139856 88.16756775 -12.30670166 88.93405151 C-12.44112084 94.7265286 -13.96896334 97.12594908 -18 101 C-21.75575569 102.25191856 -25.29558532 102.20111355 -29.2109375 102.23828125 C-30.01608795 102.246353 -30.8212384 102.25442474 -31.65078735 102.26274109 C-33.35375832 102.276563 -35.05675677 102.28729362 -36.75976562 102.29516602 C-39.35860794 102.31239135 -41.9561817 102.35629387 -44.5546875 102.40039062 C-46.21092817 102.41051714 -47.86717962 102.41903337 -49.5234375 102.42578125 C-50.29754974 102.44328934 -51.07166199 102.46079742 -51.86923218 102.47883606 C-55.57483642 102.46399975 -57.76668567 102.14533224 -60.93994141 100.16870117 C-63.79290692 97.16527706 -64.40384959 95.10681392 -65 91 C-64.0215788 80.50727606 -59.26310874 71.34578105 -53 63 C-52.34 63 -51.68 63 -51 63 C-50.7834375 62.45859375 -50.566875 61.9171875 -50.34375 61.359375 C-48.53500003 58.18354656 -46.08276201 55.79271919 -43.5 53.25 C-43.00113281 52.74339844 -42.50226563 52.23679688 -41.98828125 51.71484375 C-38.25341139 48 -38.25341139 48 -36 48 C-35.73517822 47.40324463 -35.47035645 46.80648926 -35.19750977 46.19165039 C-33.95708188 43.92145241 -32.76726367 42.63722357 -30.83984375 40.93359375 C-30.2152124 40.37124023 -29.59058105 39.80888672 -28.94702148 39.22949219 C-28.28387939 38.63813477 -27.6207373 38.04677734 -26.9375 37.4375 C-14.97825502 26.50772687 -6.46384214 14.88483135 0 0 Z " fill="#046593" transform="translate(166,76)"/>
<path d="M0 0 C4.32326033 -0.0992011 8.64591024 -0.17162265 12.9699707 -0.21972656 C14.43948921 -0.23978825 15.90892841 -0.26704478 17.37817383 -0.30175781 C19.49580487 -0.35052141 21.61237687 -0.37302161 23.73046875 -0.390625 C25.00301514 -0.41157227 26.27556152 -0.43251953 27.58666992 -0.45410156 C31.57731488 0.07680464 33.17915793 1.18928487 36 4 C37.6433869 7.2867738 37.20599853 10.93628294 37.23828125 14.55078125 C37.246353 15.40173874 37.25442474 16.25269623 37.26274109 17.12944031 C37.27658294 18.93254559 37.28730465 20.73567709 37.29516602 22.53881836 C37.31236789 25.29136067 37.35625049 28.04269838 37.40039062 30.79492188 C37.41051863 32.54686617 37.4190344 34.29882067 37.42578125 36.05078125 C37.44328934 36.87177811 37.46079742 37.69277496 37.47883606 38.53865051 C37.46364043 42.55874452 37.3055325 44.51849898 35.09838867 47.99682617 C31.67544875 51.26444945 29.46292108 51.15776424 24.8125 51.28125 C22.92724609 51.33732422 22.92724609 51.33732422 21.00390625 51.39453125 C19.66928244 51.43012557 18.33464681 51.46527906 17 51.5 C2.04283411 51.0569794 2.04283411 51.0569794 -12 55 C-13.76513947 51.46972107 -12.79825243 47.72339218 -12 44 C-7.28211086 30.7733564 -1.47679451 23.12341861 10 15 C12.98451084 13.59212807 14.68252724 13 18 13 C18 12.01 18 11.02 18 10 C23.41538462 6.92307692 23.41538462 6.92307692 26.375 7.3125 C26.91125 7.539375 27.4475 7.76625 28 8 C28.33 5.69 28.66 3.38 29 1 C19.43 1 9.86 1 0 1 C0 0.67 0 0.34 0 0 Z " fill="#0294D3" transform="translate(166,76)"/>
<path d="M0 0 C0.33 0 0.66 0 1 0 C1.04977792 5.24697519 1.0858971 10.4938101 1.10986328 15.7409668 C1.11986411 17.52256671 1.13346916 19.30415044 1.15087891 21.08569336 C1.17538957 23.66003433 1.18654248 26.23415657 1.1953125 28.80859375 C1.20563507 29.59334579 1.21595764 30.37809784 1.22659302 31.18663025 C1.22928896 44.75199731 -3.53559939 58.13951213 -13 68 C-17.74796748 72 -17.74796748 72 -21 72 C-21 72.66 -21 73.32 -21 74 C-23.97 74.495 -23.97 74.495 -27 75 C-27 75.66 -27 76.32 -27 77 C-34.15533979 79.60758587 -40.40237976 80.38999191 -48 80 C-48.33 81.32 -48.66 82.64 -49 84 C-50.22254344 80.17679551 -50.17915381 76.3550428 -50.203125 72.3828125 C-50.20882507 71.6480368 -50.21452515 70.91326111 -50.22039795 70.15621948 C-50.22982373 68.60464914 -50.23637229 67.05305901 -50.24023438 65.50146484 C-50.2499386 63.13994097 -50.28098291 60.77928858 -50.3125 58.41796875 C-50.31903112 56.90625514 -50.32428116 55.39453534 -50.328125 53.8828125 C-50.3404718 53.18261993 -50.3528186 52.48242737 -50.36553955 51.76101685 C-50.34460674 47.10627526 -49.49055662 43.93280338 -47 40 C-43.16587022 37.44391348 -39.98255562 37.68547087 -35.53515625 37.65625 C-34.70543808 37.6416272 -33.87571991 37.62700439 -33.02085876 37.61193848 C-30.36812133 37.56542958 -27.71545863 37.53123672 -25.0625 37.5 C-21.5739421 37.45884268 -18.08590992 37.40515555 -14.59765625 37.34375 C-13.79650894 37.3384729 -12.99536163 37.3331958 -12.16993713 37.32775879 C-6.73982734 37.31270071 -6.73982734 37.31270071 -2 35 C-0.84160957 31.52482871 -0.77198782 28.3272998 -0.68359375 24.70703125 C-0.66281265 24.00100266 -0.64203156 23.29497406 -0.62062073 22.56755066 C-0.55532509 20.31596449 -0.49633353 18.06426338 -0.4375 15.8125 C-0.39429575 14.2844934 -0.35068084 12.75649836 -0.30664062 11.22851562 C-0.19966426 7.48579438 -0.09834078 3.7429577 0 0 Z " fill="#0D9AD5" transform="translate(101,38)"/>
<path d="M0 0 C5.99884095 5.14186368 9.86934796 12.14432381 11 20 C12.36935908 41.56740549 2.01979898 55.82685852 -10.60302734 72.18261719 C-17.69459846 81.40835213 -24.03953082 91.01218679 -30 101 C-30.99 100.505 -30.99 100.505 -32 100 C-32 95.71 -32 91.42 -32 87 C-41.77643081 84.81897334 -51.19085271 84.86499238 -61.13330078 85.11645508 C-63.19302462 85.16459276 -65.2524209 85.19450491 -67.3125 85.22265625 C-69.13201172 85.26531616 -69.13201172 85.26531616 -70.98828125 85.30883789 C-74.37241959 84.96181009 -74.84666445 84.43064313 -77 82 C-71.37633453 82.09360093 -65.7530962 82.19971008 -60.12988281 82.31738281 C-58.21718805 82.35564968 -56.30442189 82.39050658 -54.39160156 82.421875 C-51.64101658 82.46757527 -48.89092217 82.52556145 -46.140625 82.5859375 C-45.28631897 82.59748871 -44.43201294 82.60903992 -43.55181885 82.62094116 C-42.75129089 82.64081085 -41.95076294 82.66068054 -41.12597656 82.68115234 C-40.42426331 82.69447601 -39.72255005 82.70779968 -38.99957275 82.7215271 C-36.68156921 83.04434665 -35.02866316 83.85873038 -33 85 C-32.62190186 84.44538086 -32.24380371 83.89076172 -31.85424805 83.31933594 C-30.13294949 80.79557396 -28.4102393 78.2727787 -26.6875 75.75 C-25.79514648 74.44095703 -25.79514648 74.44095703 -24.88476562 73.10546875 C-24.30791016 72.26113281 -23.73105469 71.41679688 -23.13671875 70.546875 C-22.60780029 69.77182617 -22.07888184 68.99677734 -21.53393555 68.19824219 C-20.51489866 66.73788756 -19.46264584 65.30013726 -18.37817383 63.88769531 C-16.78767016 61.70917018 -15.91291673 59.5280771 -15 57 C-14.34 57 -13.68 57 -13 57 C-13 56.01 -13 55.02 -13 54 C-12.34 54 -11.68 54 -11 54 C-10.731875 53.4225 -10.46375 52.845 -10.1875 52.25 C-8.97070811 49.94449957 -7.69666121 47.97943808 -6 46 C-5.34 46 -4.68 46 -4 46 C-3.505 41.05 -3.505 41.05 -3 36 C-1.02 35.67 0.96 35.34 3 35 C3.33 35.99 3.66 36.98 4 38 C4.66 38.33 5.32 38.66 6 39 C6 38.34 6 37.68 6 37 C6.99 37 7.98 37 9 37 C8.88501733 34.79112243 8.75756495 32.58289213 8.625 30.375 C8.52058594 28.53035156 8.52058594 28.53035156 8.4140625 26.6484375 C8.01243663 23.10958313 7.24653268 20.32263936 6 17 C5.58621094 15.83082031 5.17242187 14.66164063 4.74609375 13.45703125 C4.09833984 11.65298828 4.09833984 11.65298828 3.4375 9.8125 C2.2661128 6.54860511 1.09658677 3.28976032 0 0 Z " fill="#086E98" transform="translate(133,43)"/>
<path d="M0 0 C9.9 0 19.8 0 30 0 C29.67 2.31 29.34 4.62 29 7 C27.3603125 7.2165625 27.3603125 7.2165625 25.6875 7.4375 C22.06877013 7.88288104 22.06877013 7.88288104 19 9 C19 9.99 19 10.98 19 12 C18.45472656 12.20753906 17.90945312 12.41507813 17.34765625 12.62890625 C10.50727439 15.4235238 3.82265765 19.16442692 -0.6328125 25.21875 C-1.08398438 25.8065625 -1.53515625 26.394375 -2 27 C-2.66 27 -3.32 27 -4 27 C-4.268125 27.845625 -4.53625 28.69125 -4.8125 29.5625 C-6.0478595 33.13854067 -7.476988 36.53860908 -9 40 C-10.32 39.67 -11.64 39.34 -13 39 C-12.67 37.68 -12.34 36.36 -12 35 C-12.66 34.67 -13.32 34.34 -14 34 C-14 32.68 -14 31.36 -14 30 C-14.66 30 -15.32 30 -16 30 C-14.84826645 27.53199953 -13.95216435 25.95216435 -12 24 C-11.68804687 23.22011719 -11.37609375 22.44023438 -11.0546875 21.63671875 C-9.7133202 18.28330049 -7.75283999 15.67208197 -5.6328125 12.76953125 C-3.27008517 8.76193872 -1.72779622 4.31949054 0 0 Z " fill="#074D71" transform="translate(165,77)"/>
<path d="M0 0 C3.83298121 3.20900752 4.54895318 4.72598502 5 9.6875 C4.65825223 13.58342459 4.1326543 15.23430969 1.6875 18.25 C-1.3542006 20.75095383 -3.39952326 22.11685756 -7.3125 22.6875 C-11.94792281 22.01150084 -15.11218119 20.65037194 -18.1875 17.0625 C-19.66025156 13.38062111 -20.12963563 10.11626211 -19.3125 6.25 C-15.0613963 -1.42560389 -7.93279317 -4.1909096 0 0 Z " fill="#056C9D" transform="translate(159.3125,21.75)"/>
<path d="M0 0 C0.495 1.98 0.495 1.98 1 4 C0.01 4.33 -0.98 4.66 -2 5 C-2.33 5.99 -2.66 6.98 -3 8 C-3.66 7.67 -4.32 7.34 -5 7 C-4.6596875 7.7734375 -4.6596875 7.7734375 -4.3125 8.5625 C-3.7753702 12.75211247 -5.87470374 16.4046349 -8.24487305 19.76489258 C-9.69448012 21.5801434 -11.18181898 23.35601893 -12.6875 25.125 C-18.16740348 31.75336635 -22.69829631 38.55753433 -27 46 C-27.9976596 47.66806867 -28.99686305 49.33521952 -30 51 C-30.66 50.67 -31.32 50.34 -32 50 C-33.2765649 37.64997676 -22.85987943 27.46405711 -15.625 18.5 C-14.99335937 17.73558594 -14.36171875 16.97117187 -13.7109375 16.18359375 C-12.04060543 14.05182292 -10.63668431 11.88624673 -9.25 9.5625 C-7.52020773 6.68918733 -6.03607292 4.61923889 -3 3 C-2.01 3 -1.02 3 0 3 C0 2.01 0 1.02 0 0 Z " fill="#135476" transform="translate(133,93)"/>
<path d="M0 0 C4.32326033 -0.0992011 8.64591024 -0.17162265 12.9699707 -0.21972656 C14.43948921 -0.23978825 15.90892841 -0.26704478 17.37817383 -0.30175781 C19.49580487 -0.35052141 21.61237687 -0.37302161 23.73046875 -0.390625 C25.00301514 -0.41157227 26.27556152 -0.43251953 27.58666992 -0.45410156 C31.57731488 0.07680464 33.17915793 1.18928487 36 4 C37.6433869 7.2867738 37.20599853 10.93628294 37.23828125 14.55078125 C37.246353 15.40173874 37.25442474 16.25269623 37.26274109 17.12944031 C37.27658294 18.93254559 37.28730465 20.73567709 37.29516602 22.53881836 C37.31236789 25.29136067 37.35625049 28.04269838 37.40039062 30.79492188 C37.41051863 32.54686617 37.4190344 34.29882067 37.42578125 36.05078125 C37.44328934 36.87177811 37.46079742 37.69277496 37.47883606 38.53865051 C37.46364043 42.55874452 37.3055325 44.51849898 35.09838867 47.99682617 C31.20205776 51.71636022 27.405226 51.21463883 22.2734375 51.31640625 C21.41062164 51.33718735 20.54780579 51.35796844 19.65884399 51.37937927 C16.89764507 51.44486034 14.13634962 51.50375298 11.375 51.5625 C9.50519828 51.6056866 7.63540638 51.64930093 5.765625 51.69335938 C1.17718272 51.80054024 -3.41135683 51.90181175 -8 52 C-6 50 -6 50 -2.46826172 49.77294922 C-0.95536669 49.77326637 0.55755088 49.78459367 2.0703125 49.8046875 C2.86654022 49.8075174 3.66276794 49.81034729 4.48312378 49.81326294 C7.03056763 49.8244736 9.57766211 49.84957938 12.125 49.875 C13.85025535 49.88502867 15.57551619 49.89415472 17.30078125 49.90234375 C21.53398914 49.92441578 25.7669353 49.95895133 30 50 C30 49.34 30 48.68 30 48 C30.99 48 31.98 48 33 48 C33.86591983 43.44544661 34.18670737 39.04616545 34.31640625 34.4140625 C34.33718735 33.71227875 34.35796844 33.010495 34.37937927 32.28744507 C34.44426324 30.06672042 34.5034723 27.84588724 34.5625 25.625 C34.60574354 24.11066629 34.6493596 22.59634317 34.69335938 21.08203125 C34.80057557 17.38812993 34.90010106 13.69413531 35 10 C29.39 10.66 23.78 11.32 18 12 C18 11.34 18 10.68 18 10 C23.41538462 6.92307692 23.41538462 6.92307692 26.375 7.3125 C26.91125 7.539375 27.4475 7.76625 28 8 C28.33 5.69 28.66 3.38 29 1 C19.43 1 9.86 1 0 1 C0 0.67 0 0.34 0 0 Z " fill="#55A0C1" transform="translate(166,76)"/>
<path d="M0 0 C-4.28455285 4.78861789 -4.28455285 4.78861789 -7.75 5.8125 C-14.06034042 8.11820131 -19.0809508 13.01410164 -22 19 C-23.5159375 20.2375 -23.5159375 20.2375 -25.0625 21.5 C-28.04690302 23.65377692 -28.04690302 23.65377692 -28.875 26.125 C-28.98312892 27.7469338 -29 29.3744659 -29 31 C-29.33 31.99 -29.66 32.98 -30 34 C-29.34 34.33 -28.68 34.66 -28 35 C-28 35.66 -28 36.32 -28 37 C-28.66 37 -29.32 37 -30 37 C-30 37.66 -30 38.32 -30 39 C-31.32 39.66 -32.64 40.32 -34 41 C-35.76513947 37.46972107 -34.79825243 33.72339218 -34 30 C-29.60806523 17.68717235 -24.22952048 9.15305072 -13 2 C-10.3828125 1.3671875 -10.3828125 1.3671875 -8 1 C-7.13375 0.62875 -6.2675 0.2575 -5.375 -0.125 C-3 -1 -3 -1 0 0 Z " fill="#13A9DD" transform="translate(188,90)"/>
<path d="M0 0 C0.66 2.31 1.32 4.62 2 7 C-0.31 7.33 -2.62 7.66 -5 8 C-2.69 8.33 -0.38 8.66 2 9 C2 9.33 2 9.66 2 10 C-1.58331625 10.02907084 -5.16660208 10.04682263 -8.75 10.0625 C-9.76578125 10.07087891 -10.7815625 10.07925781 -11.828125 10.08789062 C-12.8078125 10.09111328 -13.7875 10.09433594 -14.796875 10.09765625 C-15.69760742 10.10289307 -16.59833984 10.10812988 -17.52636719 10.11352539 C-19.83389804 10.00762312 -21.79134405 9.65132813 -24 9 C-24.33 6.69 -24.66 4.38 -25 2 C-8.29157175 -0.29612756 -8.29157175 -0.29612756 0 0 Z " fill="#074F74" transform="translate(78,116)"/>
<path d="M0 0 C-0.3055513 6.61736815 -2.90596683 10.4039899 -6.8125 15.625 C-7.34681641 16.36234375 -7.88113281 17.0996875 -8.43164062 17.859375 C-11.19368524 21.65081631 -14.03334593 25.36531002 -17 29 C-17 27.35 -17 25.7 -17 24 C-26.71081138 21.68416694 -36.23405377 21.86608502 -46.13330078 22.11645508 C-48.19302462 22.16459276 -50.2524209 22.19450491 -52.3125 22.22265625 C-54.13201172 22.26531616 -54.13201172 22.26531616 -55.98828125 22.30883789 C-59.37241959 21.96181009 -59.84666445 21.43064313 -62 19 C-56.37633453 19.09360093 -50.7530962 19.19971008 -45.12988281 19.31738281 C-43.21718805 19.35564968 -41.30442189 19.39050658 -39.39160156 19.421875 C-36.64101658 19.46757527 -33.89092217 19.52556145 -31.140625 19.5859375 C-30.28631897 19.59748871 -29.43201294 19.60903992 -28.55181885 19.62094116 C-27.35102692 19.6507457 -27.35102692 19.6507457 -26.12597656 19.68115234 C-25.07340668 19.70113785 -25.07340668 19.70113785 -23.99957275 19.7215271 C-21.68156921 20.04434665 -20.02866316 20.85873038 -18 22 C-17.43285278 21.16021606 -17.43285278 21.16021606 -16.85424805 20.3034668 C-15.13540473 17.76248779 -13.41151547 15.2249723 -11.6875 12.6875 C-10.79514648 11.36588867 -10.79514648 11.36588867 -9.88476562 10.01757812 C-9.30791016 9.17001953 -8.73105469 8.32246094 -8.13671875 7.44921875 C-7.60780029 6.66893311 -7.07888184 5.88864746 -6.53393555 5.0847168 C-2.79259866 0 -2.79259866 0 0 0 Z " fill="#9ABFCE" transform="translate(118,106)"/>
<path d="M0 0 C3.4375 2 3.4375 2 6 4 C5.814375 5.03125 5.62875 6.0625 5.4375 7.125 C5.02692918 10.76148442 5.221691 13.45437009 6 17 C5.01 17.33 4.02 17.66 3 18 C2.67 17.34 2.34 16.68 2 16 C1.01 15.67 0.02 15.34 -1 15 C-1 14.01 -1 13.02 -1 12 C-1.99 12 -2.98 12 -4 12 C-5.35500919 10.68870078 -6.68671343 9.35308313 -8 8 C-10.13309192 6.76487921 -10.13309192 6.76487921 -12 6 C-11.66411682 3.48087612 -11.42645046 2.32803881 -9.375 0.75 C-6.03720209 -0.30404145 -3.48776315 -0.36080308 0 0 Z " fill="#316983" transform="translate(156,20)"/>
<path d="M0 0 C0.9796875 0.00322266 1.959375 0.00644531 2.96875 0.00976562 C3.98453125 0.01814453 5.0003125 0.02652344 6.046875 0.03515625 C7.59375 0.04192383 7.59375 0.04192383 9.171875 0.04882812 C11.71360073 0.06059537 14.25520819 0.07703614 16.796875 0.09765625 C16.796875 0.42765625 16.796875 0.75765625 16.796875 1.09765625 C16.21196289 1.10176514 15.62705078 1.10587402 15.02441406 1.11010742 C12.36421934 1.14308286 9.70630345 1.21372532 7.046875 1.28515625 C6.12648438 1.29095703 5.20609375 1.29675781 4.2578125 1.30273438 C2.92363281 1.34624023 2.92363281 1.34624023 1.5625 1.390625 C0.74555664 1.40633545 -0.07138672 1.4220459 -0.91308594 1.43823242 C-4.37086461 2.43391048 -5.378707 4.04206085 -7.203125 7.09765625 C-7.6790116 9.78189718 -7.94185757 12.11147763 -8.03125 14.8046875 C-8.0699823 15.53008224 -8.1087146 16.25547699 -8.14862061 17.00285339 C-8.26754902 19.30481933 -8.36069986 21.60698928 -8.453125 23.91015625 C-8.52954722 25.47729751 -8.60765437 27.04435756 -8.6875 28.61132812 C-8.87889135 32.43943938 -9.04718537 36.26794369 -9.203125 40.09765625 C-5.903125 40.09765625 -2.603125 40.09765625 0.796875 40.09765625 C0.796875 40.42765625 0.796875 40.75765625 0.796875 41.09765625 C-2.833125 41.09765625 -6.463125 41.09765625 -10.203125 41.09765625 C-10.533125 42.41765625 -10.863125 43.73765625 -11.203125 45.09765625 C-12.42566844 41.27445176 -12.38227881 37.45269905 -12.40625 33.48046875 C-12.41195007 32.74569305 -12.41765015 32.01091736 -12.42352295 31.25387573 C-12.43294873 29.70230539 -12.43949729 28.15071526 -12.44335938 26.59912109 C-12.4530636 24.23759722 -12.48410791 21.87694483 -12.515625 19.515625 C-12.52215612 18.00391139 -12.52740616 16.49219159 -12.53125 14.98046875 C-12.5435968 14.28027618 -12.5559436 13.58008362 -12.56866455 12.8586731 C-12.54782136 8.22386083 -11.80201629 4.95930641 -9.203125 1.09765625 C-6.2814814 -0.26549655 -3.19453144 -0.01857286 0 0 Z " fill="#53A5C7" transform="translate(63.203125,76.90234375)"/>
<path d="M0 0 C1.31219686 3.95465424 1.11708861 7.94224947 1.0546875 12.0546875 C1.04293488 12.83385529 1.03118225 13.61302307 1.01907349 14.415802 C0.99039548 16.06160646 0.9582424 17.70735355 0.92285156 19.35302734 C0.89102166 21.0305932 0.86981457 22.70839515 0.859375 24.38623047 C0.84408133 26.81840126 0.79664466 29.24811429 0.7421875 31.6796875 C0.74298309 32.42362762 0.74377869 33.16756775 0.74459839 33.93405151 C0.55787816 39.70922341 -0.98073611 42.13083619 -5 46 C-8.75575569 47.25191856 -12.29558532 47.20111355 -16.2109375 47.23828125 C-17.01608795 47.246353 -17.8212384 47.25442474 -18.65078735 47.26274109 C-20.35375832 47.276563 -22.05675677 47.28729362 -23.75976562 47.29516602 C-26.35860794 47.31239135 -28.9561817 47.35629387 -31.5546875 47.40039062 C-33.21092817 47.41051714 -34.86717962 47.41903337 -36.5234375 47.42578125 C-37.29754974 47.44328934 -38.07166199 47.46079742 -38.86923218 47.47883606 C-43.88889598 47.45873859 -46.44731043 46.55841262 -50 43 C-49.67 42.34 -49.34 41.68 -49 41 C-48.58775681 41.48608231 -48.17551361 41.97216461 -47.7507782 42.47297668 C-45.64656767 44.30826259 -44.73799179 44.38899067 -41.98754883 44.43237305 C-41.18694534 44.45216721 -40.38634186 44.47196136 -39.56147766 44.49235535 C-38.27227669 44.50194023 -38.27227669 44.50194023 -36.95703125 44.51171875 C-36.0734343 44.52966995 -35.18983734 44.54762115 -34.27946472 44.56611633 C-31.4571917 44.62029996 -28.63508856 44.65414061 -25.8125 44.6875 C-23.89906486 44.72066599 -21.98565216 44.75515498 -20.07226562 44.79101562 C-15.38163285 44.87603099 -10.69105116 44.94280362 -6 45 C-5.896875 44.38125 -5.79375 43.7625 -5.6875 43.125 C-5 41 -5 41 -2 39 C-1.67458295 36.10958701 -1.53495521 33.42279949 -1.5234375 30.52734375 C-1.50006821 29.26997154 -1.50006821 29.26997154 -1.47622681 27.98719788 C-1.42860016 25.30397484 -1.40090681 22.62101338 -1.375 19.9375 C-1.33856421 17.25059988 -1.29799287 14.56384984 -1.25234985 11.87709045 C-1.22503197 10.20338178 -1.20372067 8.52956284 -1.18881226 6.85569763 C-1.11064726 1.11064726 -1.11064726 1.11064726 0 0 Z " fill="#93C9DB" transform="translate(153,131)"/>
<path d="M0 0 C-0.309375 0.5775 -0.61875 1.155 -0.9375 1.75 C-1.92583364 3.84294184 -2.5168613 5.74535275 -3 8 C-3.66 8 -4.32 8 -5 8 C-4.79375 8.886875 -4.5875 9.77375 -4.375 10.6875 C-3.97449761 14.2252711 -4.43316484 15.86632967 -6 19 C-6.33 18.34 -6.66 17.68 -7 17 C-7.66 17.33 -8.32 17.66 -9 18 C-8.979375 18.721875 -8.95875 19.44375 -8.9375 20.1875 C-8.99820559 22.91925138 -9.39258535 25.34256091 -10 28 C-9.34 28 -8.68 28 -8 28 C-7.87625 28.804375 -7.7525 29.60875 -7.625 30.4375 C-7.41875 31.283125 -7.2125 32.12875 -7 33 C-6.34 33.33 -5.68 33.66 -5 34 C-6.32 33.67 -7.64 33.34 -9 33 C-9 32.34 -9 31.68 -9 31 C-10.32 30.67 -11.64 30.34 -13 30 C-15.19517739 21.18793077 -11.61153694 12.99598371 -7.5625 5.25 C-5.57610755 2.38959488 -3.65052791 0 0 0 Z " fill="#064769" transform="translate(115,142)"/>
<path d="M0 0 C0 3.90838866 -1.50567876 5.11594107 -4 8 C-3.34 8 -2.68 8 -2 8 C-1.67 7.34 -1.34 6.68 -1 6 C-1 7.98 -1 9.96 -1 12 C-3.31 12.66 -5.62 13.32 -8 14 C-8 14.66 -8 15.32 -8 16 C-8.99 15.67 -9.98 15.34 -11 15 C-11.0825 15.94875 -11.165 16.8975 -11.25 17.875 C-11.4975 18.90625 -11.745 19.9375 -12 21 C-13.31647119 21.69937532 -14.65022151 22.36729133 -16 23 C-16.81171228 25.55519921 -16.81171228 25.55519921 -17 28 C-18.65 27.67 -20.3 27.34 -22 27 C-22.68359375 25.20703125 -22.68359375 25.20703125 -23 23 C-21.84765625 21.32421875 -21.84765625 21.32421875 -20.0625 19.6875 C-19.4128125 19.08035156 -18.763125 18.47320312 -18.09375 17.84765625 C-16.09909742 16.08744978 -14.08426502 14.35393001 -12.0625 12.625 C-7.60606535 8.79647787 -3.80588278 4.46381464 0 0 Z " fill="#4A7B94" transform="translate(153,99)"/>
<path d="M0 0 C0.33 1.32 0.66 2.64 1 4 C0.01 4.33 -0.98 4.66 -2 5 C-2.33 5.99 -2.66 6.98 -3 8 C-3.66 7.67 -4.32 7.34 -5 7 C-4.6596875 7.7734375 -4.6596875 7.7734375 -4.3125 8.5625 C-3.84280759 12.22610078 -4.99946782 15.00256962 -7 18 C-8.71541692 19.4777148 -10.44801079 20.68007541 -12.37890625 21.859375 C-14.3082101 23.0709226 -14.3082101 23.0709226 -16 26 C-16.99 25.67 -17.98 25.34 -19 25 C-17.68081702 21.27215954 -16.06253191 18.55380242 -13.5625 15.5 C-11.61067816 13.07232077 -9.89242367 10.81672181 -8.3125 8.125 C-6.82092468 5.71006853 -5.43403705 4.4452095 -3 3 C-2.01 3 -1.02 3 0 3 C0 2.01 0 1.02 0 0 Z " fill="#085C87" transform="translate(133,93)"/>
<path d="M0 0 C1.9375 0.625 1.9375 0.625 4 2 C5.46860895 6.61562812 4.78345128 9.58830472 3 14 C2.62875 14.94875 2.2575 15.8975 1.875 16.875 C1.58625 17.57625 1.2975 18.2775 1 19 C-0.32 18.67 -1.64 18.34 -3 18 C-2.67 16.68 -2.34 15.36 -2 14 C-2.66 13.67 -3.32 13.34 -4 13 C-4 11.68 -4 10.36 -4 9 C-4.66 9 -5.32 9 -6 9 C-4.47291037 5.56404834 -2.40072955 2.88087546 0 0 Z " fill="#024F74" transform="translate(155,98)"/>
<path d="M0 0 C4.35992871 -0.04945386 8.71970862 -0.08574488 13.07983398 -0.10986328 C14.56293583 -0.11991821 16.04601788 -0.13356404 17.52905273 -0.15087891 C19.66134531 -0.17515006 21.79337569 -0.18648799 23.92578125 -0.1953125 C25.85031128 -0.21102295 25.85031128 -0.21102295 27.8137207 -0.22705078 C31 0 31 0 34 2 C34.495 5.96 34.495 5.96 35 10 C29.39 10.66 23.78 11.32 18 12 C18 11.34 18 10.68 18 10 C23.41538462 6.92307692 23.41538462 6.92307692 26.375 7.3125 C26.91125 7.539375 27.4475 7.76625 28 8 C28.33 5.69 28.66 3.38 29 1 C19.43 1 9.86 1 0 1 C0 0.67 0 0.34 0 0 Z " fill="#3D81A3" transform="translate(166,76)"/>
<path d="M0 0 C0.33 0 0.66 0 1 0 C0.4067086 10.53603701 0.4067086 10.53603701 -3 15 C-3.5053125 15.68449219 -4.010625 16.36898437 -4.53125 17.07421875 C-6.00329742 19.06356585 -7.49421101 21.03613927 -9 23 C-9.66 22.01 -10.32 21.02 -11 20 C-10.01 18.515 -10.01 18.515 -9 17 C-9.66 16.67 -10.32 16.34 -11 16 C-10.34 14.35 -9.68 12.7 -9 11 C-8.34 11 -7.68 11 -7 11 C-7 10.01 -7 9.02 -7 8 C-6.34 8 -5.68 8 -5 8 C-4.731875 7.4225 -4.46375 6.845 -4.1875 6.25 C-2.97790559 3.95813691 -1.64363461 2.00094648 0 0 Z " fill="#0796CC" transform="translate(127,89)"/>
<path d="M0 0 C0 2.62113708 -0.31292445 4.50935112 -1 7 C-0.34 7 0.32 7 1 7 C1.33 8.65 1.66 10.3 2 12 C3.65 12 5.3 12 7 12 C7.061875 12.928125 7.061875 12.928125 7.125 13.875 C7.41375 14.57625 7.7025 15.2775 8 16 C10.99615946 17.3045656 10.99615946 17.3045656 14 18 C12 20 12 20 9.25 20.3125 C4.45695366 19.85163016 1.28300512 18.4968393 -1.875 14.8125 C-3.45309967 10.86725083 -3.40510805 8.25363449 -3 4 C-1.5 1.5 -1.5 1.5 0 0 Z " fill="#339BC8" transform="translate(143,24)"/>
<path d="M0 0 C0.33 0 0.66 0 1 0 C2.80679587 4.62369023 3.21839082 8.42528653 3.125 13.375 C3.10695312 14.62023437 3.08890625 15.86546875 3.0703125 17.1484375 C3.04710937 18.08945313 3.02390625 19.03046875 3 20 C2.01 20 1.02 20 0 20 C0 20.66 0 21.32 0 22 C-0.99 21.67 -1.98 21.34 -3 21 C-3.33 20.34 -3.66 19.68 -4 19 C-4.66 19.33 -5.32 19.66 -6 20 C-5.25 13.375 -5.25 13.375 -3 10 C-2.01 10 -1.02 10 0 10 C0 6.7 0 3.4 0 0 Z " fill="#06709F" transform="translate(139,60)"/>
<path d="M0 0 C5.9909821 5.13512752 9.88672309 12.14846813 11 20 C11.36808917 27.24194044 11.60567769 34.16009607 9 41 C7.47883091 36.25961262 8.02746739 31.422608 8.16015625 26.5078125 C7.99498672 22.89019701 7.29517903 20.36484012 6 17 C5.58621094 15.83082031 5.17242187 14.66164063 4.74609375 13.45703125 C4.31425781 12.25433594 3.88242188 11.05164063 3.4375 9.8125 C2.2661128 6.54860511 1.09658677 3.28976032 0 0 Z " fill="#9CDDEB" transform="translate(133,43)"/>
<path d="M0 0 C-1.61944911 2.48295611 -3.24519149 4.96135842 -4.875 7.4375 C-5.33519531 8.14455078 -5.79539062 8.85160156 -6.26953125 9.58007812 C-6.71425781 10.25361328 -7.15898438 10.92714844 -7.6171875 11.62109375 C-8.02565918 12.2442749 -8.43413086 12.86745605 -8.85498047 13.50952148 C-10 15 -10 15 -12 16 C-12.66 15.67 -13.32 15.34 -14 15 C-14 14.01 -14 13.02 -14 12 C-14.99 12 -15.98 12 -17 12 C-17 11.34 -17 10.68 -17 10 C-16.01 10 -15.02 10 -14 10 C-14.33 7.69 -14.66 5.38 -15 3 C-14.34 3 -13.68 3 -13 3 C-12.67 3.99 -12.34 4.98 -12 6 C-11.01 6.33 -10.02 6.66 -9 7 C-6.71271266 5.16116119 -6.71271266 5.16116119 -6.875 2.375 C-6.91625 1.59125 -6.9575 0.8075 -7 0 C-3.86650268 -1.04449911 -3.01031744 -0.93423645 0 0 Z " fill="#117DAD" transform="translate(111,113)"/>
<path d="M0 0 C9.3933316 0.95424321 15.9123807 5.03655159 22.8359375 11.25 C22.5059375 11.91 22.1759375 12.57 21.8359375 13.25 C20.8459375 13.25 19.8559375 13.25 18.8359375 13.25 C18.8359375 12.59 18.8359375 11.93 18.8359375 11.25 C15.8659375 10.755 15.8659375 10.755 12.8359375 10.25 C12.5059375 9.26 12.1759375 8.27 11.8359375 7.25 C12.1659375 6.92 12.4959375 6.59 12.8359375 6.25 C9.78330086 5.26879536 7.88857414 5.26879536 4.8359375 6.25 C4.8359375 6.91 4.8359375 7.57 4.8359375 8.25 C3.5159375 8.58 2.1959375 8.91 0.8359375 9.25 C0.5059375 8.26 0.1759375 7.27 -0.1640625 6.25 C0.8259375 5.26 1.8159375 4.27 2.8359375 3.25 C3.8259375 3.58 4.8159375 3.91 5.8359375 4.25 C6.1659375 3.59 6.4959375 2.93 6.8359375 2.25 C0.8959375 2.745 0.8959375 2.745 -5.1640625 3.25 C-2.1640625 0.25 -2.1640625 0.25 0 0 Z " fill="#5A859C" transform="translate(110.1640625,29.75)"/>
<path d="M0 0 C0.33 0.99 0.66 1.98 1 3 C1.66 3.66 2.32 4.32 3 5 C1.824375 5.12375 1.824375 5.12375 0.625 5.25 C-2.11740113 5.73772008 -2.11740113 5.73772008 -3.375 7.9375 C-4.26871235 10.035396 -4.26871235 10.035396 -3 12 C-7.455 13.485 -7.455 13.485 -12 15 C-11.67 15.99 -11.34 16.98 -11 18 C-11.99 18.99 -12.98 19.98 -14 21 C-14.96484375 18.4921875 -14.96484375 18.4921875 -15 15 C-12.90068885 11.98461172 -10.25950024 9.60345436 -7.5625 7.125 C-6.84255859 6.43664062 -6.12261719 5.74828125 -5.38085938 5.0390625 C-3.60191873 3.3425893 -1.80878351 1.6645247 0 0 Z " fill="#064560" transform="translate(131,123)"/>
<path d="M0 0 C0.88300781 0.02707031 1.76601562 0.05414062 2.67578125 0.08203125 C3.67158203 0.13423828 3.67158203 0.13423828 4.6875 0.1875 C4.3575 1.1775 4.0275 2.1675 3.6875 3.1875 C2.3675 3.1875 1.0475 3.1875 -0.3125 3.1875 C-1.3025 3.8475 -2.2925 4.5075 -3.3125 5.1875 C-3.9725 5.1875 -4.6325 5.1875 -5.3125 5.1875 C-6.3025 5.5175 -7.2925 5.8475 -8.3125 6.1875 C-8.6425 16.0875 -8.9725 25.9875 -9.3125 36.1875 C-9.6425 36.1875 -9.9725 36.1875 -10.3125 36.1875 C-10.43609943 31.54282361 -10.52683399 26.89910374 -10.5871582 22.25317383 C-10.6123033 20.67292611 -10.64642474 19.09279471 -10.68969727 17.51293945 C-10.75035708 15.24140768 -10.77870678 12.97141256 -10.80078125 10.69921875 C-10.82658768 9.99286789 -10.8523941 9.28651703 -10.87898254 8.5587616 C-10.88012695 6.55737305 -10.88012695 6.55737305 -10.3125 3.1875 C-6.90002761 0.37009511 -4.36513972 -0.17460559 0 0 Z " fill="#31637C" transform="translate(112.3125,31.8125)"/>
<path d="M0 0 C1 3 1 3 -0.4765625 6.1796875 C-1.18203935 7.41759971 -1.89869103 8.64919434 -2.625 9.875 C-2.96917969 10.48730469 -3.31335938 11.09960938 -3.66796875 11.73046875 C-6.00943676 15.76539703 -8.57193387 18.83655652 -12 22 C-12 20.02 -12 18.04 -12 16 C-11.34 16 -10.68 16 -10 16 C-8.36323743 14.0399719 -8.36323743 14.0399719 -7 12 C-8.65 12.66 -10.3 13.32 -12 14 C-11.625 12.0625 -11.625 12.0625 -11 10 C-10.34 9.67 -9.68 9.34 -9 9 C-8.27840576 7.35636866 -7.60648579 5.68949614 -7 4 C-5.35 4 -3.7 4 -2 4 C-1.34 2.68 -0.68 1.36 0 0 Z " fill="#4188A9" transform="translate(140,84)"/>
<path d="M0 0 C2 2 2 2 2.3125 5.3125 C1.90327816 10.14131776 0.37542805 12.62457195 -3 16 C-6.625 16.125 -6.625 16.125 -10 16 C-9.67 14.68 -9.34 13.36 -9 12 C-8.01 12 -7.02 12 -6 12 C-5.67 11.34 -5.34 10.68 -5 10 C-5.99 10 -6.98 10 -8 10 C-8.33 8.68 -8.66 7.36 -9 6 C-8.34 6 -7.68 6 -7 6 C-7 6.99 -7 7.98 -7 9 C-5.68 9.33 -4.36 9.66 -3 10 C-3 10.66 -3 11.32 -3 12 C-2.34 11.34 -1.68 10.68 -1 10 C-1.165 8.865625 -1.33 7.73125 -1.5 6.5625 C-2 3 -2 3 0 0 Z " fill="#2E7FA5" transform="translate(162,26)"/>
<path d="M0 0 C0.66 0 1.32 0 2 0 C1.58706588 5.89369612 -0.05085347 9.25351205 -3.5625 13.9375 C-3.98724609 14.52595703 -4.41199219 15.11441406 -4.84960938 15.72070312 C-5.8879628 17.15573089 -6.9423585 18.57912809 -8 20 C-8.93423645 16.98968256 -9.04449911 16.13349732 -8 13 C-7.34 13 -6.68 13 -6 13 C-6 12.34 -6 11.68 -6 11 C-6.66 10.67 -7.32 10.34 -8 10 C-6.85500893 8.52018126 -5.708983 7.04116318 -4.5625 5.5625 C-3.60537109 4.32693359 -3.60537109 4.32693359 -2.62890625 3.06640625 C-1 1 -1 1 0 0 Z " fill="#4CC0EE" transform="translate(116,106)"/>
<path d="M0 0 C-4.625 4.875 -4.625 4.875 -8 6 C-8.66 5.67 -9.32 5.34 -10 5 C-8.94958421 2.13522966 -8.29875437 1.16086774 -5.5625 -0.3125 C-3 -1 -3 -1 0 0 Z M-13 6 C-12.34 6.33 -11.68 6.66 -11 7 C-14.96 10.465 -14.96 10.465 -19 14 C-19.33 13.34 -19.66 12.68 -20 12 C-16.375 7.125 -16.375 7.125 -13 6 Z M-22 14 C-21.34 14.33 -20.68 14.66 -20 15 C-20.66 16.32 -21.32 17.64 -22 19 C-22.66 19 -23.32 19 -24 19 C-24 18.01 -24 17.02 -24 16 C-23.34 16 -22.68 16 -22 16 C-22 15.34 -22 14.68 -22 14 Z " fill="#07A9E0" transform="translate(188,90)"/>
<path d="M0 0 C3 3.75 3 3.75 3 6 C3.99 6 4.98 6 6 6 C6.33 6.99 6.66 7.98 7 9 C5.6875 11.1875 5.6875 11.1875 4 13 C3.34 13 2.68 13 2 13 C2 13.66 2 14.32 2 15 C1.34 15 0.68 15 0 15 C-0.33 13.02 -0.66 11.04 -1 9 C-2.32 8.67 -3.64 8.34 -5 8 C-3.62845496 5.04590299 -2.01136276 2.55991624 0 0 Z " fill="#266383" transform="translate(159,91)"/>
<path d="M0 0 C-0.125 1.8125 -0.125 1.8125 -1 4 C-2.98246398 5.03432904 -4.98413316 6.03238392 -7 7 C-8.01800576 8.31963709 -9.02248365 9.65009646 -10 11 C-10.99 11 -11.98 11 -13 11 C-13 11.66 -13 12.32 -13 13 C-13.66 13 -14.32 13 -15 13 C-15.28875 13.639375 -15.5775 14.27875 -15.875 14.9375 C-17 17 -17 17 -19 18 C-17.11737058 10.64063044 -8.2180676 0 0 0 Z " fill="#34A9D9" transform="translate(178,92)"/>
<path d="M0 0 C0.99 0 1.98 0 3 0 C1.63016497 3.16115776 1.0109362 3.9927092 -2 6 C-4.96884465 6.24144163 -7.851868 6.37307097 -10.82421875 6.4140625 C-11.68561966 6.43342865 -12.54702057 6.4527948 -13.43452454 6.4727478 C-16.18541568 6.5325203 -18.93634873 6.57891948 -21.6875 6.625 C-23.55275261 6.66318194 -25.41798763 6.7022338 -27.28320312 6.7421875 C-31.85532586 6.8382199 -36.42753114 6.9222595 -41 7 C-39 5 -39 5 -35.46826172 4.77294922 C-33.95536669 4.77326637 -32.44244912 4.78459367 -30.9296875 4.8046875 C-30.13345978 4.8075174 -29.33723206 4.81034729 -28.51687622 4.81326294 C-25.96943237 4.8244736 -23.42233789 4.84957938 -20.875 4.875 C-19.14974465 4.88502867 -17.42448381 4.89415472 -15.69921875 4.90234375 C-11.46601086 4.92441578 -7.2330647 4.95895133 -3 5 C-3 4.34 -3 3.68 -3 3 C-2.01 3 -1.02 3 0 3 C0 2.01 0 1.02 0 0 Z " fill="#78B5CB" transform="translate(199,121)"/>
<path d="M0 0 C0 1.65 0 3.3 0 5 C-0.639375 5.226875 -1.27875 5.45375 -1.9375 5.6875 C-4.27193661 6.85250896 -4.27193661 6.85250896 -4.75 9.625 C-4.8325 10.40875 -4.915 11.1925 -5 12 C-6.65 11.67 -8.3 11.34 -10 11 C-10.69921875 9.234375 -10.69921875 9.234375 -11 7 C-9.70703125 5.078125 -9.70703125 5.078125 -7.8125 3.25 C-6.89404297 2.32960938 -6.89404297 2.32960938 -5.95703125 1.390625 C-4 0 -4 0 0 0 Z " fill="#43738B" transform="translate(141,115)"/>
<path d="M0 0 C2.31 0 4.62 0 7 0 C5.68 2.64 4.36 5.28 3 8 C-5.91 8 -14.82 8 -24 8 C-24 7.67 -24 7.34 -24 7 C-16.08 6.67 -8.16 6.34 0 6 C0 4.02 0 2.04 0 0 Z M2 1 C3 3 3 3 3 3 Z " fill="#0B89C2" transform="translate(144,168)"/>
<path d="M0 0 C0.33 1.32 0.66 2.64 1 4 C0.01 4 -0.98 4 -2 4 C-3.42843 6.85686 -3.05763026 9.24531789 -2.9921875 12.43359375 C-2.97542969 13.72201172 -2.95867187 15.01042969 -2.94140625 16.33789062 C-2.91043714 18.38996274 -2.87490701 20.44162134 -2.82861328 22.4934082 C-2.78627185 24.4732269 -2.76395828 26.45344201 -2.7421875 28.43359375 C-2.7201123 29.62009521 -2.69803711 30.80659668 -2.67529297 32.02905273 C-3 35 -3 35 -6 38 C-5.67 26.12 -5.34 14.24 -5 2 C-3.35 1.34 -1.7 0.68 0 0 Z " fill="#064668" transform="translate(108,35)"/>
<path d="M0 0 C1.65 0.33 3.3 0.66 5 1 C5.0825 1.78375 5.165 2.5675 5.25 3.375 C5.71861846 6.09789337 5.71861846 6.09789337 7.8125 7.1875 C8.534375 7.455625 9.25625 7.72375 10 8 C11.33333333 8.66666667 12.66666667 9.33333333 14 10 C13.67 11.32 13.34 12.64 13 14 C12.01 13.67 11.02 13.34 10 13 C10 12.01 10 11.02 10 10 C9.01 10 8.02 10 7 10 C5.64499081 8.68870078 4.31328657 7.35308313 3 6 C0.86690808 4.76487921 0.86690808 4.76487921 -1 4 C-0.67 2.68 -0.34 1.36 0 0 Z " fill="#18688B" transform="translate(145,22)"/>
<path d="M0 0 C0.99 0.33 1.98 0.66 3 1 C3.05437607 2.58294782 3.09296271 4.16644256 3.125 5.75 C3.14820313 6.63171875 3.17140625 7.5134375 3.1953125 8.421875 C2.99139502 11.1135858 2.36551721 12.69904974 1 15 C0.34 15 -0.32 15 -1 15 C-1.66 16.32 -2.32 17.64 -3 19 C-2.47239628 13.46016094 -1.69006062 8.16405047 -0.40234375 2.75 C0.03734417 1.13684697 0.03734417 1.13684697 0 0 Z " fill="#0386B8" transform="translate(130,79)"/>
<path d="M0 0 C1.32 0.33 2.64 0.66 4 1 C2.75023244 4.65316671 2.32901247 5.78065836 -1 8 C-1.99 9.485 -1.99 9.485 -3 11 C-3.99 10.67 -4.98 10.34 -6 10 C-4.6302836 6.00499382 -2.74277578 3.19990508 0 0 Z " fill="#09567E" transform="translate(120,108)"/>
<path d="M0 0 C1.32 0 2.64 0 4 0 C4 0.66 4 1.32 4 2 C4.99 1.67 5.98 1.34 7 1 C7 1.99 7 2.98 7 4 C6.01 4 5.02 4 4 4 C4 4.66 4 5.32 4 6 C-2.6 6 -9.2 6 -16 6 C-16 5.67 -16 5.34 -16 5 C-10.72 5 -5.44 5 0 5 C0 3.35 0 1.7 0 0 Z " fill="#0B7BAE" transform="translate(192,120)"/>
<path d="M0 0 C0.77001757 6.9301581 -1.9101944 11.89763393 -5 18 C-5.33 17.01 -5.66 16.02 -6 15 C-5.33333333 13.66666667 -4.66666667 12.33333333 -4 11 C-3.77117579 7.87273585 -3.9987495 6.0037515 -5 3 C-5.99 2.67 -6.98 2.34 -8 2 C-2.25 0 -2.25 0 0 0 Z " fill="#0FA8E1" transform="translate(101,76)"/>
<path d="M0 0 C0.66 0.33 1.32 0.66 2 1 C0.4375 2.171875 -1.125 3.34375 -2.6875 4.515625 C-4.44160248 6.1691947 -4.44160248 6.1691947 -4 10 C-5.98 9.34 -7.96 8.68 -10 8 C-10 7.34 -10 6.68 -10 6 C-10.66 5.34 -11.32 4.68 -12 4 C-11.01 3.01 -10.02 2.02 -9 1 C-8.67 1.99 -8.34 2.98 -8 4 C-7.21625 3.505 -6.4325 3.01 -5.625 2.5 C-3 1 -3 1 -1 1 C-0.67 0.67 -0.34 0.34 0 0 Z " fill="#03466A" transform="translate(171,89)"/>
<path d="M0 0 C0.33 0.66 0.66 1.32 1 2 C0.06421005 4.35981813 -0.93347808 6.69631264 -2 9 C-2.66 9 -3.32 9 -4 9 C-3.79375 9.78375 -3.5875 10.5675 -3.375 11.375 C-3.25125 12.24125 -3.1275 13.1075 -3 14 C-3.66 14.66 -4.32 15.32 -5 16 C-5.46290221 18.66242821 -5.46290221 18.66242821 -5.625 21.625 C-5.69976562 22.62789062 -5.77453125 23.63078125 -5.8515625 24.6640625 C-5.90054688 25.43492187 -5.94953125 26.20578125 -6 27 C-8.62833246 22.46663587 -8.11783983 18.99035639 -7 14 C-5.229495 9.03453825 -2.85780695 4.42960077 0 0 Z " fill="#7C9FB1" transform="translate(109,145)"/>
<path d="M0 0 C5.59282842 1.36410449 8.91193811 4.15383526 13 8 C12.67 8.66 12.34 9.32 12 10 C11.01 10 10.02 10 9 10 C9 9.34 9 8.68 9 8 C6.03 7.505 6.03 7.505 3 7 C2.67 6.01 2.34 5.02 2 4 C2.33 3.67 2.66 3.34 3 3 C2.01 2.01 1.02 1.02 0 0 Z " fill="#689AAF" transform="translate(120,33)"/>
<path d="M0 0 C0 0.99 0 1.98 0 3 C0.15468841 5.06343295 0.32265725 7.12589054 0.5 9.1875 C0.5928125 10.27417969 0.685625 11.36085938 0.78125 12.48046875 C0.8534375 13.31191406 0.925625 14.14335938 1 15 C1.66 15 2.32 15 3 15 C3.33 15.99 3.66 16.98 4 18 C1.1048317 17.70049983 0.16176506 17.19065168 -1.75 14.9375 C-3.46478779 10.90774869 -3.41699438 8.37844102 -3 4 C-1.5 1.5 -1.5 1.5 0 0 Z " fill="#80C1D8" transform="translate(143,24)"/>
<path d="M0 0 C0.99 0 1.98 0 3 0 C3 1.32 3 2.64 3 4 C3.66 4 4.32 4 5 4 C5 4.66 5 5.32 5 6 C7.475 6.99 7.475 6.99 10 8 C10 9.32 10 10.64 10 12 C9.34 12 8.68 12 8 12 C7.67 10.68 7.34 9.36 7 8 C5.35 8 3.7 8 2 8 C0.74335022 5.09399739 0 3.20395416 0 0 Z " fill="#037BB3" transform="translate(143,28)"/>
<path d="M0 0 C1.80411967 2.75924185 2.0127245 3.88972103 1.625 7.25 C1.41875 8.1575 1.2125 9.065 1 10 C1.66 10 2.32 10 3 10 C3.12375 10.804375 3.2475 11.60875 3.375 12.4375 C3.684375 13.7059375 3.684375 13.7059375 4 15 C4.66 15.33 5.32 15.66 6 16 C4.68 15.67 3.36 15.34 2 15 C2 14.34 2 13.68 2 13 C1.01 12.67 0.02 12.34 -1 12 C-1.02687279 10.18757948 -1.04633715 8.37504767 -1.0625 6.5625 C-1.07410156 5.55316406 -1.08570312 4.54382813 -1.09765625 3.50390625 C-1 1 -1 1 0 0 Z " fill="#0A476A" transform="translate(104,160)"/>
<path d="M0 0 C1.9375 0.8125 1.9375 0.8125 4 2 C4.33 2.99 4.66 3.98 5 5 C4.34 5.66 3.68 6.32 3 7 C2.67 6.34 2.34 5.68 2 5 C1.34 5.66 0.68 6.32 0 7 C-1.32 7 -2.64 7 -4 7 C-4 7.66 -4 8.32 -4 9 C-4.66 9 -5.32 9 -6 9 C-4.47291037 5.56404834 -2.40072955 2.88087546 0 0 Z " fill="#0B4B66" transform="translate(155,98)"/>
<path d="M0 0 C3.99900242 3.66575222 6.63557638 7.08927402 9 12 C8.67 12.99 8.34 13.98 8 15 C4.54475531 12.69650354 3.95030553 11.23793453 2.3125 7.5 C1.87550781 6.5203125 1.43851563 5.540625 0.98828125 4.53125 C0 2 0 2 0 0 Z " fill="#9CD1E5" transform="translate(133,43)"/>
<path d="M0 0 C-2.31 3.3 -4.62 6.6 -7 10 C-8.07318928 6.78043217 -7.870689 6.09578311 -7 3 C-7 2.01 -7 1.02 -7 0 C-4 -1 -4 -1 0 0 Z " fill="#1281B4" transform="translate(111,113)"/>
<path d="M0 0 C0.66 0.33 1.32 0.66 2 1 C1.56802365 5.7517398 0.67230705 7.92000054 -3 11 C-3.33 10.01 -3.66 9.02 -4 8 C-3.34 7.01 -2.68 6.02 -2 5 C-2.66 4.67 -3.32 4.34 -4 4 C-2.68 2.68 -1.36 1.36 0 0 Z " fill="#18B1E1" transform="translate(120,101)"/>
<path d="M0 0 C0.9796875 0.00322266 1.959375 0.00644531 2.96875 0.00976562 C3.98453125 0.01814453 5.0003125 0.02652344 6.046875 0.03515625 C7.59375 0.04192383 7.59375 0.04192383 9.171875 0.04882812 C11.71360073 0.06059537 14.25520819 0.07703614 16.796875 0.09765625 C16.796875 0.42765625 16.796875 0.75765625 16.796875 1.09765625 C16.22243652 1.11747559 15.64799805 1.13729492 15.05615234 1.15771484 C12.42763667 1.25357649 9.79985009 1.36300499 7.171875 1.47265625 C5.81642578 1.5190625 5.81642578 1.5190625 4.43359375 1.56640625 C-0.45697172 1.7805916 -4.61114132 2.2211978 -9.203125 4.09765625 C-9.203125 3.10765625 -9.203125 2.11765625 -9.203125 1.09765625 C-6.06462436 0.17211882 -3.26631722 -0.01899022 0 0 Z " fill="#2A7EA4" transform="translate(63.203125,76.90234375)"/>
<path d="M0 0 C0.99 0.33 1.98 0.66 3 1 C2.46884894 5.51478398 0.63379708 8.34666857 -2 12 C-2.93423645 8.98968256 -3.04449911 8.13349732 -2 5 C-1.34 5 -0.68 5 0 5 C0 4.34 0 3.68 0 3 C-0.66 2.67 -1.32 2.34 -2 2 C-1.34 1.34 -0.68 0.68 0 0 Z " fill="#80CDEE" transform="translate(110,114)"/>
<path d="M0 0 C-0.495 0.61875 -0.99 1.2375 -1.5 1.875 C-3.19222773 3.83880904 -3.19222773 3.83880904 -3 6 C-3.66 6 -4.32 6 -5 6 C-5 5.34 -5 4.68 -5 4 C-6.98 4 -8.96 4 -11 4 C-10.34 3.67 -9.68 3.34 -9 3 C-9 2.34 -9 1.68 -9 1 C-3.375 -1.125 -3.375 -1.125 0 0 Z " fill="#015889" transform="translate(83,112)"/>
<path d="M0 0 C0.33 0.66 0.66 1.32 1 2 C0.34 2 -0.32 2 -1 2 C-0.938125 3.423125 -0.938125 3.423125 -0.875 4.875 C-1 8 -1 8 -3 10 C-3 8.35 -3 6.7 -3 5 C-6.63 4.34 -10.26 3.68 -14 3 C-14 2.67 -14 2.34 -14 2 C-7.375 1.875 -7.375 1.875 -4 3 C-1.80961577 1.62831762 -1.80961577 1.62831762 0 0 Z " fill="#CDF1F9" transform="translate(104,125)"/>
<path d="M0 0 C0.66 0.66 1.32 1.32 2 2 C2.99 1.34 3.98 0.68 5 0 C3.33248852 3.94139078 0.77289351 6.7892812 -2 10 C-2.103125 9.360625 -2.20625 8.72125 -2.3125 8.0625 C-2.539375 7.381875 -2.76625 6.70125 -3 6 C-3.99 5.67 -4.98 5.34 -6 5 C-5.34 4.67 -4.68 4.34 -4 4 C-3.01 4.33 -2.02 4.66 -1 5 C-0.67 3.35 -0.34 1.7 0 0 Z " fill="#6290AA" transform="translate(118,113)"/>
<path d="M0 0 C0.33 0 0.66 0 1 0 C1.33 1.98 1.66 3.96 2 6 C3.32 6.33 4.64 6.66 6 7 C5.34 7 4.68 7 4 7 C4 7.66 4 8.32 4 9 C2.02 9.99 2.02 9.99 0 11 C-1.26026798 8.47946405 -0.91874445 7.1457902 -0.5625 4.375 C-0.46066406 3.55773437 -0.35882813 2.74046875 -0.25390625 1.8984375 C-0.17011719 1.27195312 -0.08632812 0.64546875 0 0 Z " fill="#36A4D1" transform="translate(154,120)"/>
<path d="M0 0 C1.32 0.66 2.64 1.32 4 2 C3.01 2 2.02 2 1 2 C1 2.66 1 3.32 1 4 C-2.50776784 5.60355101 -5.14354879 6.22036864 -9 6 C-6.56680171 3.05454944 -4.67586393 2.67713283 -1 2 C-0.67 1.34 -0.34 0.68 0 0 Z " fill="#1292CA" transform="translate(73,111)"/>
<path d="M0 0 C0.66 0.33 1.32 0.66 2 1 C2 4.3 2 7.6 2 11 C1.01 11.33 0.02 11.66 -1 12 C-0.67 8.04 -0.34 4.08 0 0 Z " fill="#18ACDD" transform="translate(140,65)"/>
<path d="M0 0 C2 2 2 2 2.125 5.625 C2.08375 6.73875 2.0425 7.8525 2 9 C1.01 9.33 0.02 9.66 -1 10 C-2.25 3.375 -2.25 3.375 0 0 Z " fill="#648AA0" transform="translate(162,26)"/>
<path d="M0 0 C0.66 0 1.32 0 2 0 C2.33 0.99 2.66 1.98 3 3 C5.01508358 3.73323796 5.01508358 3.73323796 7 4 C7 5.32 7 6.64 7 8 C6.34 8 5.68 8 5 8 C5 7.34 5 6.68 5 6 C3.35 5.67 1.7 5.34 0 5 C0 3.35 0 1.7 0 0 Z " fill="#0279B1" transform="translate(96,116)"/>
<path d="M0 0 C0.5534764 2.07553648 1 3.84365964 1 6 C1.309375 6.99 1.309375 6.99 1.625 8 C1.74875 8.66 1.8725 9.32 2 10 C1.34 10.66 0.68 11.32 0 12 C0 11.34 0 10.68 0 10 C-0.66 9.67 -1.32 9.34 -2 9 C-3 6 -3 6 -1.5625 2.8125 C-1.046875 1.884375 -0.53125 0.95625 0 0 Z " fill="#52819A" transform="translate(163,83)"/>
<path d="M0 0 C2.475 0.99 2.475 0.99 5 2 C3.25 4.0625 3.25 4.0625 1 6 C-1.25 5.75 -1.25 5.75 -3 5 C-2.01 3.35 -1.02 1.7 0 0 Z " fill="#064A68" transform="translate(119,34)"/>
<path d="M0 0 C1.32 0 2.64 0 4 0 C2.62845496 2.95409701 1.01136276 5.44008376 -1 8 C-1.93065133 5.39417629 -2.14917407 4.35801776 -1.0625 1.75 C-0.711875 1.1725 -0.36125 0.595 0 0 Z " fill="#4D8299" transform="translate(106,131)"/>
<path d="M0 0 C0.99 0.33 1.98 0.66 3 1 C2.34 2.65 1.68 4.3 1 6 C1.66 6.33 2.32 6.66 3 7 C1.35 7.66 -0.3 8.32 -2 9 C-1.34 6.03 -0.68 3.06 0 0 Z " fill="#06A1DF" transform="translate(157,118)"/>
<path d="M0 0 C0 3.39593478 -0.52165948 4.06619881 -2.5 6.6875 C-2.9640625 7.31011719 -3.428125 7.93273437 -3.90625 8.57421875 C-4.2671875 9.04472656 -4.628125 9.51523438 -5 10 C-5.5534764 7.92446352 -6 6.15634036 -6 4 C-5.34 4 -4.68 4 -4 4 C-2.62689293 2.70766393 -1.28965176 1.37562854 0 0 Z " fill="#7DA7BC" transform="translate(134,96)"/>
<path d="M0 0 C-0.33 1.32 -0.66 2.64 -1 4 C-2.65 4.33 -4.3 4.66 -6 5 C-5.625 3.0625 -5.625 3.0625 -5 1 C-3 0 -3 0 0 0 Z " fill="#24A8DE" transform="translate(178,92)"/>
<path d="M0 0 C0.33 0.66 0.66 1.32 1 2 C1.99 1.67 2.98 1.34 4 1 C4 2.32 4 3.64 4 5 C3.01 5 2.02 5 1 5 C1 5.66 1 6.32 1 7 C0.34 7 -0.32 7 -1 7 C-0.67 4.69 -0.34 2.38 0 0 Z " fill="#0986B4" transform="translate(138,75)"/>
<path d="M0 0 C2.5654594 2.5654594 2.54046087 4.47686668 3 8 C2.34 8 1.68 8 1 8 C0.67 9.32 0.34 10.64 0 12 C0 8.04 0 4.08 0 0 Z " fill="#0A6F9B" transform="translate(136,51)"/>
<path d="M0 0 C0.99 0 1.98 0 3 0 C2.8125 1.875 2.8125 1.875 2 4 C-0.5625 5.25 -0.5625 5.25 -3 6 C-1.125 1.125 -1.125 1.125 0 0 Z " fill="#075077" transform="translate(112,119)"/>
<path d="M0 0 C0.66 0 1.32 0 2 0 C1.67 1.98 1.34 3.96 1 6 C-0.32 6 -1.64 6 -3 6 C-2.42655063 3.13275314 -2.1385485 2.1385485 0 0 Z " fill="#065584" transform="translate(193,78)"/>
<path d="M0 0 C2.38564077 0.57584432 4.66682784 1.22227595 7 2 C6.67 3.32 6.34 4.64 6 6 C5.01 5.67 4.02 5.34 3 5 C3 4.01 3 3.02 3 2 C2.01 2 1.02 2 0 2 C0 1.34 0 0.68 0 0 Z " fill="#025985" transform="translate(152,30)"/>
<path d="M0 0 C0.33 0 0.66 0 1 0 C1.144375 0.94875 1.28875 1.8975 1.4375 2.875 C1.82935399 5.8934494 1.82935399 5.8934494 3 8 C2.01 8.99 1.02 9.98 0 11 C-1.35015859 6.94952424 -0.62084998 4.2079832 0 0 Z " fill="#7193A2" transform="translate(102,133)"/>
<path d="M0 0 C2 2 2 2 2.125 4.625 C2.08375 5.40875 2.0425 6.1925 2 7 C-0.475 6.01 -0.475 6.01 -3 5 C-2.34 4.67 -1.68 4.34 -1 4 C-0.34786708 1.97536745 -0.34786708 1.97536745 0 0 Z " fill="#09496E" transform="translate(142,113)"/>
<path d="M0 0 C0.6875 1.75 0.6875 1.75 1 4 C-0.3125 6.25 -0.3125 6.25 -2 8 C-2.66 8 -3.32 8 -4 8 C-3.40072174 4.64404172 -2.15377564 2.62198774 0 0 Z " fill="#10A9DD" transform="translate(93,94)"/>
<path d="M0 0 C2 4 2 4 1.125 7.25 C0.75375 8.1575 0.3825 9.065 0 10 C-0.66 10 -1.32 10 -2 10 C-1.34 6.7 -0.68 3.4 0 0 Z " fill="#057BAA" transform="translate(131,84)"/>
<path d="M0 0 C1.125 1.6875 1.125 1.6875 2 4 C1.25 6.6875 1.25 6.6875 0 9 C-0.99 9.495 -0.99 9.495 -2 10 C-1.54177532 6.53058454 -1.10868317 3.32604951 0 0 Z " fill="#0376A9" transform="translate(135,70)"/>
<path d="M0 0 C0.99 0.33 1.98 0.66 3 1 C3 3.64 3 6.28 3 9 C2.34 8.67 1.68 8.34 1 8 C0.40644386 5.35139573 0.25790731 2.70802678 0 0 Z " fill="#4EB7D9" transform="translate(139,57)"/>
<path d="M0 0 C0.99 0 1.98 0 3 0 C3.12375 0.804375 3.2475 1.60875 3.375 2.4375 C3.684375 3.7059375 3.684375 3.7059375 4 5 C4.66 5.33 5.32 5.66 6 6 C4.68 5.67 3.36 5.34 2 5 C2 4.34 2 3.68 2 3 C1.01 2.67 0.02 2.34 -1 2 C-0.67 1.34 -0.34 0.68 0 0 Z " fill="#0E5877" transform="translate(104,170)"/>
<path d="M0 0 C0.33 1.32 0.66 2.64 1 4 C-0.875 5.0625 -0.875 5.0625 -3 6 C-3.66 5.67 -4.32 5.34 -5 5 C-3.35 3.35 -1.7 1.7 0 0 Z " fill="#074E70" transform="translate(127,130)"/>
<path d="M0 0 C0.33 1.32 0.66 2.64 1 4 C0.01 4.33 -0.98 4.66 -2 5 C-2.33 5.99 -2.66 6.98 -3 8 C-3.66 7.67 -4.32 7.34 -5 7 C-4.34 5.68 -3.68 4.36 -3 3 C-2.01 3 -1.02 3 0 3 C0 2.01 0 1.02 0 0 Z " fill="#08567B" transform="translate(133,93)"/>
<path d="M0 0 C0.66 0 1.32 0 2 0 C1.42655063 2.86724686 1.1385485 3.8614515 -1 6 C-1.99 5.67 -2.98 5.34 -4 5 C-3.34 5 -2.68 5 -2 5 C-1.7834375 4.0409375 -1.7834375 4.0409375 -1.5625 3.0625 C-1 1 -1 1 0 0 Z " fill="#5AB0CB" transform="translate(149,171)"/>
<path d="M0 0 C0.99 0 1.98 0 3 0 C3.33 1.32 3.66 2.64 4 4 C2.824375 4.2165625 2.824375 4.2165625 1.625 4.4375 C-0.96421018 4.87798925 -0.96421018 4.87798925 -3 6 C-2 4 -1 2 0 0 Z " fill="#638A9A" transform="translate(113,139)"/>
<path d="M0 0 C0.66 0.33 1.32 0.66 2 1 C0.8141763 4.37503669 -0.27573689 6.64722731 -3 9 C-1.125 2.25 -1.125 2.25 0 0 Z " fill="#7299AD" transform="translate(113,122)"/>
<path d="M0 0 C0.66 0 1.32 0 2 0 C2 0.66 2 1.32 2 2 C1.34 2 0.68 2 0 2 C0 2.99 0 3.98 0 5 C-1.65 5.66 -3.3 6.32 -5 7 C-1.125 1.125 -1.125 1.125 0 0 Z " fill="#95DAFB" transform="translate(108,117)"/>
<path d="M0 0 C0.99 0 1.98 0 3 0 C3 3 3 3 1 5.1875 C0.34 5.785625 -0.32 6.38375 -1 7 C-1.04254356 5.00045254 -1.04080783 2.99958364 -1 1 C-0.67 0.67 -0.34 0.34 0 0 Z " fill="#7EABBB" transform="translate(124,106)"/>
<path d="M0 0 C-3.3 1.32 -6.6 2.64 -10 4 C-10.66 3.34 -11.32 2.68 -12 2 C-10.75579353 1.4654744 -9.50429064 0.94791389 -8.25 0.4375 C-7.55390625 0.14746094 -6.8578125 -0.14257812 -6.140625 -0.44140625 C-4 -1 -4 -1 0 0 Z " fill="#1A9BCB" transform="translate(188,89)"/>
<path d="M0 0 C0.66 0 1.32 0 2 0 C2.125 3.375 2.125 3.375 2 7 C1.34 7.66 0.68 8.32 0 9 C-0.87890625 2.84765625 -0.87890625 2.84765625 -1 1 C-0.67 0.67 -0.34 0.34 0 0 Z " fill="#149FD2" transform="translate(99,76)"/>
<path d="M0 0 C2.475 0.495 2.475 0.495 5 1 C5 1.66 5 2.32 5 3 C4.34 3 3.68 3 3 3 C3 3.66 3 4.32 3 5 C2.34 5 1.68 5 1 5 C0.67 3.35 0.34 1.7 0 0 Z " fill="#024F76" transform="translate(150,23)"/>
</svg>
